<svg width="25" height="24" viewBox="0 0 25 24" fill="none" xmlns="http://www.w3.org/2000/svg">
<g clip-path="url(#clip0_15_1868)">
<path fill-rule="evenodd" clip-rule="evenodd" d="M24.27 12.2727C24.27 11.4218 24.1936 10.6036 24.0518 9.81818H12.75V14.46H19.2082C18.93 15.96 18.0845 17.2309 16.8136 18.0818V21.0927H20.6918C22.9609 19.0036 24.27 15.9273 24.27 12.2727Z" fill="#4285F4"/>
<path fill-rule="evenodd" clip-rule="evenodd" d="M12.75 24C15.99 24 18.7064 22.9254 20.6918 21.0927L16.8136 18.0818C15.7391 18.8018 14.3645 19.2272 12.75 19.2272C9.62455 19.2272 6.97909 17.1163 6.03546 14.28H2.02637V17.3891C4.00091 21.3109 8.05909 24 12.75 24Z" fill="#34A853"/>
<path fill-rule="evenodd" clip-rule="evenodd" d="M6.03545 14.28C5.79545 13.56 5.65909 12.7909 5.65909 12C5.65909 11.2091 5.79545 10.44 6.03545 9.71999V6.6109H2.02636C1.21364 8.2309 0.75 10.0636 0.75 12C0.75 13.9364 1.21364 15.7691 2.02636 17.3891L6.03545 14.28Z" fill="#FBBC05"/>
<path fill-rule="evenodd" clip-rule="evenodd" d="M12.75 4.77273C14.5118 4.77273 16.0936 5.37818 17.3373 6.56727L20.7791 3.12545C18.7009 1.18909 15.9845 0 12.75 0C8.05909 0 4.00091 2.68909 2.02637 6.61091L6.03546 9.72C6.97909 6.88364 9.62455 4.77273 12.75 4.77273Z" fill="#EA4335"/>
</g>
<defs>
<clipPath id="clip0_15_1868">
<rect width="24" height="24" fill="white" transform="translate(0.75)"/>
</clipPath>
</defs>
</svg>
