<svg width="25" height="24" viewBox="0 0 25 24" fill="none" xmlns="http://www.w3.org/2000/svg">
<path d="M16.375 7H12.375" stroke="#B5B2C1" stroke-width="1.5" stroke-linecap="round" stroke-linejoin="round"/>
<path d="M16.375 11H12.375" stroke="#B5B2C1" stroke-width="1.5" stroke-linecap="round" stroke-linejoin="round"/>
<path d="M16.375 15H12.375" stroke="#B5B2C1" stroke-width="1.5" stroke-linecap="round" stroke-linejoin="round"/>
<path fill-rule="evenodd" clip-rule="evenodd" d="M4.375 20.191V4C4.375 3.448 4.823 3 5.375 3H19.375C19.927 3 20.375 3.448 20.375 4V20.191C20.375 20.563 19.984 20.804 19.651 20.638L17.708 19.666L15.042 21L12.375 19.667L9.708 21L7.041 19.667L5.098 20.639C4.766 20.804 4.375 20.563 4.375 20.191Z" stroke="#B5B2C1" stroke-width="1.5" stroke-linecap="round" stroke-linejoin="round"/>
<path d="M8.375 6.99012C8.372 6.99012 8.37 6.99212 8.37 6.99512C8.37 6.99812 8.372 7.00012 8.375 7.00012C8.378 7.00012 8.38 6.99812 8.38 6.99512C8.38 6.99212 8.378 6.99012 8.375 6.99012" stroke="#B5B2C1" stroke-width="1.5" stroke-linecap="round" stroke-linejoin="round"/>
<path d="M8.375 10.9999C8.372 10.9999 8.37 11.0019 8.37 11.0049C8.37 11.0079 8.372 11.0099 8.375 11.0099C8.378 11.0099 8.38 11.0079 8.38 11.0049C8.38 11.0019 8.378 10.9999 8.375 10.9999" stroke="#B5B2C1" stroke-width="1.5" stroke-linecap="round" stroke-linejoin="round"/>
<path d="M8.375 14.9901C8.372 14.9901 8.37 14.9921 8.37 14.9951C8.37 14.9981 8.372 15.0001 8.375 15.0001C8.378 15.0001 8.38 14.9981 8.38 14.9951C8.38 14.9921 8.378 14.9901 8.375 14.9901" stroke="#B5B2C1" stroke-width="1.5" stroke-linecap="round" stroke-linejoin="round"/>
</svg>
