<svg width="25" height="24" viewBox="0 0 25 24" fill="none" xmlns="http://www.w3.org/2000/svg">
<path d="M7.87288 21.0039H6.87247C5.21492 21.0039 3.87122 19.6602 3.87122 18.0026V17.0022" stroke="#2EB565" stroke-width="1.5" stroke-linecap="round" stroke-linejoin="round"/>
<path d="M17.8771 2.99634H18.8775C20.535 2.99634 21.8787 4.34004 21.8787 5.99759V6.998" stroke="#2EB565" stroke-width="1.5" stroke-linecap="round" stroke-linejoin="round"/>
<path d="M3.87122 6.998V5.99759C3.87122 4.34004 5.21492 2.99634 6.87247 2.99634H7.87288" stroke="#2EB565" stroke-width="1.5" stroke-linecap="round" stroke-linejoin="round"/>
<path d="M21.8787 17.0022V18.0026C21.8787 19.6602 20.535 21.0039 18.8775 21.0039H17.8771" stroke="#2EB565" stroke-width="1.5" stroke-linecap="round" stroke-linejoin="round"/>
<path d="M6.87244 12.0001V8.99881C6.87244 7.34126 8.21614 5.99756 9.87369 5.99756H15.8762C17.5337 5.99756 18.8774 7.34126 18.8774 8.99881V12.0001" stroke="#2EB565" stroke-width="1.5" stroke-linecap="round" stroke-linejoin="round"/>
<path d="M18.8774 15.0015C18.8774 16.659 17.5337 18.0027 15.8762 18.0027H9.87369C8.21614 18.0027 6.87244 16.659 6.87244 15.0015" stroke="#2EB565" stroke-width="1.5" stroke-linecap="round" stroke-linejoin="round"/>
<path d="M4.8717 12.0002H21.8788" stroke="#2EB565" stroke-width="1.5" stroke-linecap="round" stroke-linejoin="round"/>
</svg>
