<svg width="25" height="24" viewBox="0 0 25 24" fill="none" xmlns="http://www.w3.org/2000/svg">
<path fill-rule="evenodd" clip-rule="evenodd" d="M13.231 3.26998L14.681 2.56098C15.35 2.23398 16.159 2.49598 16.508 3.15498L17.265 4.58098C17.465 4.95698 17.827 5.21998 18.247 5.29398L19.837 5.57298C20.571 5.70198 21.07 6.38898 20.966 7.12698L20.74 8.72498C20.68 9.14698 20.819 9.57298 21.115 9.87898L22.237 11.039C22.755 11.574 22.755 12.424 22.237 12.96L21.115 14.12C20.819 14.426 20.68 14.852 20.74 15.274L20.966 16.872C21.07 17.61 20.571 18.297 19.837 18.426L18.247 18.705C17.827 18.779 17.465 19.042 17.265 19.418L16.508 20.844C16.159 21.502 15.351 21.765 14.681 21.438L13.231 20.729C12.848 20.542 12.401 20.542 12.018 20.729L10.568 21.438C9.89901 21.765 9.09001 21.503 8.74101 20.844L7.98501 19.418C7.78501 19.042 7.42301 18.779 7.00301 18.705L5.41301 18.426C4.67901 18.297 4.18001 17.61 4.28401 16.872L4.51001 15.274C4.57001 14.852 4.43101 14.426 4.13501 14.12L3.01301 12.96C2.49501 12.425 2.49501 11.575 3.01301 11.039L4.13501 9.87898C4.43101 9.57298 4.57001 9.14698 4.51001 8.72498L4.28501 7.12698C4.18001 6.38998 4.68001 5.70198 5.41401 5.57398L7.00401 5.29498C7.42301 5.22098 7.78501 4.95798 7.98501 4.58198L8.74201 3.15598C9.09101 2.49798 9.89901 2.23498 10.569 2.56198L12.019 3.27098C12.401 3.45798 12.849 3.45798 13.231 3.26998Z" stroke="#B5B2C1" stroke-width="1.5" stroke-linecap="round" stroke-linejoin="round"/>
<path fill-rule="evenodd" clip-rule="evenodd" d="M16 16H9.25C8.698 16 8.25 15.552 8.25 15V11.376C8.25 10.824 8.698 10.376 9.25 10.376H15.999C16.551 10.376 16.999 10.824 16.999 11.376V15C16.999 15.552 16.551 16 16 16Z" stroke="#B5B2C1" stroke-width="1.5" stroke-linecap="round" stroke-linejoin="round"/>
<path fill-rule="evenodd" clip-rule="evenodd" d="M12.692 10.381C13.246 10.381 14.389 10.201 15.116 9.44201C15.651 8.88301 15.651 7.97801 15.116 7.41901C14.581 6.86001 13.713 6.86001 13.178 7.41901C12.359 8.27501 12.692 10.381 12.692 10.381V10.381Z" stroke="#B5B2C1" stroke-width="1.5" stroke-linecap="round" stroke-linejoin="round"/>
<path fill-rule="evenodd" clip-rule="evenodd" d="M12.558 10.381C12.004 10.381 10.861 10.201 10.134 9.44201C9.59898 8.88301 9.59898 7.97801 10.134 7.41901C10.669 6.86001 11.537 6.86001 12.072 7.41901C12.891 8.27501 12.558 10.381 12.558 10.381V10.381Z" stroke="#B5B2C1" stroke-width="1.5" stroke-linecap="round" stroke-linejoin="round"/>
<path d="M12.625 10.3799V15.9999" stroke="#B5B2C1" stroke-width="1.5" stroke-linecap="round" stroke-linejoin="round"/>
</svg>
