<svg width="25" height="24" viewBox="0 0 25 24" fill="none" xmlns="http://www.w3.org/2000/svg">
<path fill-rule="evenodd" clip-rule="evenodd" d="M9.77804 18.6369L10.3043 19.8203C10.6239 20.5401 11.3375 21.0038 12.125 21.0038V21.0038C12.9125 21.0038 13.6262 20.5401 13.9458 19.8203L14.472 18.6369C14.6593 18.2169 14.9744 17.8668 15.3724 17.6364V17.6364C15.7728 17.4054 16.2361 17.307 16.6959 17.3553L17.9835 17.4924C18.7665 17.5752 19.5248 17.189 19.9183 16.507V16.507C20.3122 15.8253 20.2675 14.9756 19.8042 14.3391L19.0419 13.2916C18.7705 12.9159 18.6254 12.4636 18.6277 12.0001V12.0001C18.6276 11.5378 18.774 11.0874 19.0459 10.7136L19.8082 9.66612C20.2715 9.0296 20.3163 8.17983 19.9223 7.49821V7.49821C19.5288 6.81619 18.7705 6.42998 17.9875 6.5128L16.6999 6.64986C16.2401 6.69815 15.7768 6.59975 15.3764 6.36874V6.36874C14.9776 6.13707 14.6624 5.78512 14.476 5.36332L13.9458 4.17983C13.6262 3.46008 12.9125 2.99634 12.125 2.99634V2.99634C11.3375 2.99634 10.6239 3.46008 10.3043 4.17983L9.77804 5.36332C9.5916 5.78512 9.27642 6.13707 8.87767 6.36874V6.36874C8.47719 6.59975 8.01391 6.69815 7.55411 6.64986L6.26258 6.5128C5.47956 6.42998 4.72125 6.81619 4.32777 7.49821V7.49821C3.93378 8.17983 3.97849 9.0296 4.44182 9.66612L5.20414 10.7136C5.476 11.0874 5.62239 11.5378 5.62231 12.0001V12.0001C5.62239 12.4624 5.476 12.9128 5.20414 13.2866L4.44182 14.3341C3.97849 14.9706 3.93378 15.8203 4.32777 16.502V16.502C4.72161 17.1836 5.47966 17.5697 6.26258 17.4874L7.55011 17.3503C8.00991 17.302 8.47319 17.4004 8.87366 17.6314V17.6314C9.27391 17.8624 9.59055 18.2145 9.77804 18.6369V18.6369Z" stroke="#B5B2C1" stroke-width="1.5"/>
<circle cx="12.125" cy="12.0002" r="2.6481" stroke="#B5B2C1" stroke-width="1.5" stroke-linecap="round" stroke-linejoin="round"/>
</svg>
